<?xml version="1.0" encoding="iso-8859-1"?>
<!-- Generator: Adobe Illustrator 22.1.0, SVG Export Plug-In . SVG Version: 6.00 Build 0)  -->
<svg xmlns="http://www.w3.org/2000/svg" xmlns:xlink="http://www.w3.org/1999/xlink" version="1.1" x="0px" y="0px" viewBox="0 0 24 24" style="enable-background:new 0 0 24 24;" xml:space="preserve" width="24px" height="24px">
<g id="sharp">
	<path d="M16.125,1c-1.153,0.067-2.477,0.71-3.264,1.528c-0.711,0.744-1.271,1.848-1.042,2.917c1.253,0.033,2.511-0.625,3.264-1.458   C15.786,3.208,16.318,2.12,16.125,1z"/>
	<g>
		<path d="M16.194,5.444c-1.809,0-2.566,1.111-3.819,1.111c-1.289,0-2.468-1.042-4.028-1.042C6.225,5.514,3,7.48,3,12.111    C3,16.324,6.817,21,8.972,21c1.309,0.013,1.627-0.824,3.403-0.833c1.778-0.013,2.161,0.844,3.472,0.833    c1.476-0.011,2.63-1.632,3.472-2.917c0.604-0.92,0.851-1.391,1.319-2.431c-3.473-0.88-4.164-6.481,0-7.639    C19.852,6.672,17.559,5.444,16.194,5.444z"/>
	</g>
</g>
</svg>
