<?xml version="1.0" encoding="utf-8"?>
<!-- Generator: Adobe Illustrator 23.0.2, SVG Export Plug-In . SVG Version: 6.00 Build 0)  -->
<svg version="1.1" id="Layer_1" xmlns="http://www.w3.org/2000/svg" xmlns:xlink="http://www.w3.org/1999/xlink" x="0px" y="0px"
	 viewBox="0 0 1280 806.17" style="enable-background:new 0 0 1280 806.17;" xml:space="preserve">
<style type="text/css">
	.st0{fill:url(#XMLID_2_);}
	.st1{opacity:0.38;fill:url(#XMLID_3_);}
	.st2{opacity:0.38;fill:url(#XMLID_4_);}
</style>
<linearGradient id="XMLID_2_" gradientUnits="userSpaceOnUse" x1="0" y1="362.6538" x2="1281" y2="362.6538">
	<stop  offset="0" style="stop-color:#39D1A0"/>
	<stop  offset="1" style="stop-color:#31C7B7"/>
</linearGradient>
<path id="XMLID_209_" class="st0" d="M1280.99,600.94c0,0-105.98,188.03-453.98,28.03s-520,6.01-520,6.01S165,771,0,705.67V1.89
	h1281L1280.99,600.94z"/>
<linearGradient id="XMLID_3_" gradientUnits="userSpaceOnUse" x1="0" y1="370.2953" x2="1281" y2="370.2953">
	<stop  offset="0" style="stop-color:#39D1A0"/>
	<stop  offset="1" style="stop-color:#31C7B7"/>
</linearGradient>
<path id="XMLID_208_" class="st1" d="M1281,1.89H0V695c0,0,123.8,110.55,283-20c175.03-143.53,378-100,514-34s324,112,484-16V1.89z"
	/>
<linearGradient id="XMLID_4_" gradientUnits="userSpaceOnUse" x1="0" y1="367.0367" x2="1281" y2="367.0367">
	<stop  offset="0" style="stop-color:#39D1A0"/>
	<stop  offset="1" style="stop-color:#31C7B7"/>
</linearGradient>
<path id="XMLID_207_" class="st2" d="M0,647V1.89h1281l-1,601.06c0,0-219.9,206.89-536.53,97.15
	c-30.44-10.55-59.84-23.89-88.1-39.37c-51.43-28.15-188.34-97.76-302.37-13.74C225.16,741.18,11,655,0,647z"/>
</svg>
