<?xml version="1.0"?>
<svg xmlns="http://www.w3.org/2000/svg" height="512px" viewBox="0 0 496 496" width="512px"><g><path d="m496 384h-16v-48h-37.558594c22.671875-15.9375 37.558594-42.238281 37.558594-72 0-29.703125-15.289062-57.367188-40-73.535156v-166.464844c0-13.230469-10.769531-24-24-24h-99.3125l-40.007812 39.96875 32 31.976562-32 31.976563 33.023437 33.0625-25.984375 39.015625h-15.964844l-32.9375-39.535156 32.496094-32.535156-32-31.976563 32-31.976563-40-39.976562h-99.3125c-13.230469 0-24 10.769531-24 24v13.71875l-51.839844 56.058594c-23.320312 25.207031-36.160156 58.007812-36.160156 92.34375v157.878906h-16v80h128v-80h-16v-29.230469c0-10.089843 3.769531-19.722656 10.609375-27.128906l58.742187-63.640625h132.265626c-6.304688 12.296875-9.617188 25.886719-9.617188 40 0 29.761719 14.886719 56.0625 37.558594 72h-37.558594v64h16v32h-16v64h176v-48h16zm-172.6875-368h92.6875c4.40625 0 8 3.585938 8 8v8l-116.679688-.023438zm-15.984375 31.976562 116.671875.023438v32h-100.742188l8.054688-8.054688zm-86.585937 32.023438h-100.742188v-32l116.671875-.023438-23.984375 23.976563zm-92.742188-64h92.6875l15.992188 15.976562-116.679688.023438v-8c0-4.414062 3.59375-8 8-8zm-112 392v-16h32v-16h-32v-16h96v16h-48v16h48v16zm94.847656-131.214844c-9.574218 10.375-14.847656 23.863282-14.847656 37.984375v29.230469h-64v-157.878906c0-30.296875 11.335938-59.234375 31.902344-81.488282l40.097656-43.351562v138.71875c0 5.207031 1.871094 10.089844 4.878906 14.167969-4.222656 2.328125-9.671875 2.351562-13.773437-.375l-18.671875-12.449219-8.875 13.3125 18.664062 12.441406c11.785156 7.878906 28.777344 5.636719 38.113282-5.050781l43.105468-49.253906c2.664063-3.050781 6.511719-4.792969 10.550782-4.792969 7.71875 0 14.007812 6.289062 14.007812 14.015625v1.375c0 3.53125-1.320312 6.90625-3.710938 9.503906zm67.144532-124.785156c-8.65625 0-16.878907 3.734375-22.585938 10.246094l-35.039062 40.042968c-.222657-.738281-.367188-1.496093-.367188-2.289062v-104h116.742188l7.945312 7.9375-31.503906 31.535156 47.0625 56.527344h32.035156l38.007812-57.046875-30.976562-31.015625 7.945312-7.9375h116.742188v104c0 4.414062-3.59375 8-8 8h-219.878906l3.917968-4.246094c5.136719-5.570312 7.960938-12.792968 7.960938-20.363281v-1.375c0-16.542969-13.464844-30.015625-30.007812-30.015625zm142.007812 112c0-14.425781 4.230469-28.152344 12.183594-40h51.816406v1.472656c-9.289062 3.3125-16 12.113282-16 22.527344 0 13.230469 10.769531 24 24 24 4.40625 0 8 3.585938 8 8s-3.59375 8-8 8-8-3.585938-8-8h-16c0 10.414062 6.710938 19.214844 16 22.527344v17.472656h16v-17.472656c9.289062-3.3125 16-12.113282 16-22.527344 0-13.230469-10.769531-24-24-24-4.40625 0-8-3.585938-8-8s3.59375-8 8-8 8 3.585938 8 8h16c0-10.414062-6.710938-19.214844-16-22.527344v-1.472656h16c10.054688 0 18.65625-6.230469 22.222656-15.023438 16.074219 13.558594 25.777344 33.648438 25.777344 55.023438 0 39.703125-32.304688 72-72 72s-72-32.296875-72-72zm0 88h144v32h-16v-16h-16v16h-16v-16h-16v16h-16v-16h-16v16h-16v-16h-16v16h-16zm144 128h-16v-16h-16v16h-16v-16h-16v16h-16v-16h-16v16h-16v-16h-16v16h-16v-32h144zm16-48h-16v-16h-16v16h-16v-16h-16v16h-16v-16h-16v16h-16v-16h-16v16h-16v-32h144zm0 0" data-original="#000000" class="active-path" data-old_color="#ffffff" fill="#ffffff"/><path d="m328 176h80v16h-80zm0 0" data-original="#000000" class="active-path" data-old_color="#ffffff" fill="#ffffff"/><path d="m344 144h64v16h-64zm0 0" data-original="#000000" class="active-path" data-old_color="#ffffff" fill="#ffffff"/></g> </svg>
