<?xml version="1.0" encoding="utf-8"?>
<!-- Generator: Adobe Illustrator 23.0.2, SVG Export Plug-In . SVG Version: 6.00 Build 0)  -->
<svg version="1.1" id="Layer_1" xmlns="http://www.w3.org/2000/svg" xmlns:xlink="http://www.w3.org/1999/xlink" x="0px" y="0px"
	 viewBox="0 0 1290.57 219.88" style="enable-background:new 0 0 1290.57 219.88;" xml:space="preserve">
<style type="text/css">
	.st0{fill:#06CA46;}
	.st1{fill:#FFFFFF;}
	.st2{fill:none;stroke:#000000;stroke-miterlimit:10;}
	.st3{fill:none;stroke:#9B9B9B;stroke-miterlimit:10;}
	.st4{fill:#31C7B7;}
	.st5{fill:#39D1A0;}
	.st6{fill:url(#SVGID_1_);}
	.st7{fill:url(#SVGID_2_);}
	.st8{fill:url(#SVGID_3_);}
	.st9{clip-path:url(#SVGID_5_);}
	.st10{clip-path:url(#SVGID_6_);}
	.st11{fill:#606060;}
	.st12{clip-path:url(#SVGID_7_);}
	.st13{clip-path:url(#SVGID_8_);}
	.st14{clip-path:url(#SVGID_11_);}
	.st15{clip-path:url(#SVGID_13_);}
	.st16{clip-path:url(#SVGID_17_);}
	.st17{clip-path:url(#SVGID_18_);}
	.st18{clip-path:url(#SVGID_20_);}
	.st19{clip-path:url(#SVGID_23_);}
	.st20{fill:#ECEFFB;}
	.st21{clip-path:url(#SVGID_26_);}
	.st22{clip-path:url(#SVGID_27_);}
	.st23{clip-path:url(#SVGID_28_);}
	.st24{clip-path:url(#SVGID_29_);}
	.st25{opacity:0.13;}
	.st26{fill:none;stroke:url(#SVGID_30_);stroke-width:18;stroke-linecap:round;stroke-linejoin:round;stroke-miterlimit:10;}
	.st27{fill:none;stroke:url(#SVGID_31_);stroke-width:18;stroke-linecap:round;stroke-linejoin:round;stroke-miterlimit:10;}
	.st28{clip-path:url(#SVGID_32_);}
	.st29{fill:#4ECFA1;}
	.st30{clip-path:url(#SVGID_33_);}
	.st31{opacity:0.46;fill:#FFFFFF;}
	.st32{clip-path:url(#SVGID_35_);}
	.st33{clip-path:url(#SVGID_36_);}
	.st34{fill:none;stroke:url(#SVGID_37_);stroke-width:18;stroke-linecap:round;stroke-linejoin:round;stroke-miterlimit:10;}
	.st35{fill:none;stroke:url(#SVGID_38_);stroke-width:18;stroke-linecap:round;stroke-linejoin:round;stroke-miterlimit:10;}
	.st36{fill:none;stroke:url(#SVGID_39_);stroke-width:18;stroke-linecap:round;stroke-linejoin:round;stroke-miterlimit:10;}
	.st37{fill:none;stroke:url(#SVGID_41_);stroke-width:18;stroke-linecap:round;stroke-linejoin:round;stroke-miterlimit:10;}
</style>
<g>
	<g>
		<g>
			<polygon class="st1" points="5.69,95.79 0,104.03 139.73,167.83 209.02,175.66 209.02,217.75 271.64,217.75 271.64,183.41 
				259.52,141 222.11,117.92 181.81,105.79 128.14,103.74 127.92,108.62 125.59,124.14 176.06,135.63 119.21,127.96 119.21,119.04 
				104.33,115.67 62.82,104.45 16.83,90.99 			"/>
		</g>
		<g>
			<g>
				<path class="st1" d="M135.83,49.03c-29.15,0.02-56.6-1.97-77.31-5.58C33.27,39.03,22,33.11,22,24.23S33.25,10.12,58.51,5.67
					c20.7-3.64,48.15-5.66,77.3-5.67s56.6,1.97,77.31,5.58c25.26,4.41,36.52,9.64,36.53,18.52c0.01,8.88-11.25,14.82-36.51,19.26
					C192.43,47,164.98,49.01,135.83,49.03z M35,24.22c2.69,1.71,10.22,5.15,30.05,8.23c19.46,3.03,44.6,4.68,70.77,4.67
					c26.18-0.02,51.31-1.7,70.77-4.75c19.82-3.1,27.36-6.55,30.04-8.27c-2.69-1.71-8.51-8.31-30.05-11.03
					c-19.54-2.47-44.6-4.68-70.77-4.67s-51.31,2.4-70.77,5.45C45.22,16.96,37.69,22.51,35,24.22z"/>
			</g>
		</g>
	</g>
	<g>
		<path class="st1" d="M394.54,216.79V64.26h96.4v23.55h-68.67v38.96h60.97v23.55h-60.97v66.47H394.54z"/>
		<path class="st1" d="M615.97,159.13c0,9.1-1.32,17.39-3.96,24.87c-2.64,7.48-6.38,13.87-11.22,19.15
			c-4.84,5.28-10.67,9.39-17.5,12.33s-14.34,4.4-22.56,4.4c-8.22,0-15.7-1.47-22.45-4.4c-6.75-2.93-12.55-7.04-17.39-12.33
			c-4.84-5.28-8.62-11.67-11.33-19.15c-2.72-7.48-4.07-15.77-4.07-24.87c0-9.1,1.36-17.35,4.07-24.76
			c2.71-7.41,6.53-13.76,11.45-19.04c4.91-5.28,10.75-9.35,17.5-12.22c6.75-2.86,14.16-4.29,22.23-4.29
			c8.07,0,15.52,1.43,22.34,4.29s12.66,6.93,17.5,12.22c4.84,5.28,8.62,11.63,11.34,19.04
			C614.61,141.78,615.97,150.03,615.97,159.13z M588.67,159.13c0-11.45-2.46-20.5-7.37-27.18c-4.92-6.68-11.78-10.01-20.58-10.01
			c-8.8,0-15.67,3.34-20.58,10.01c-4.92,6.68-7.37,15.74-7.37,27.18c0,11.59,2.46,20.77,7.37,27.51
			c4.92,6.75,11.78,10.12,20.58,10.12c8.8,0,15.66-3.37,20.58-10.12C586.21,179.89,588.67,170.72,588.67,159.13z"/>
		<path class="st1" d="M747.58,159.13c0,9.1-1.32,17.39-3.96,24.87c-2.64,7.48-6.38,13.87-11.22,19.15
			c-4.84,5.28-10.67,9.39-17.5,12.33s-14.34,4.4-22.56,4.4c-8.22,0-15.7-1.47-22.45-4.4c-6.75-2.93-12.55-7.04-17.39-12.33
			c-4.84-5.28-8.62-11.67-11.33-19.15c-2.72-7.48-4.07-15.77-4.07-24.87c0-9.1,1.36-17.35,4.07-24.76
			c2.71-7.41,6.53-13.76,11.45-19.04c4.91-5.28,10.75-9.35,17.5-12.22c6.75-2.86,14.16-4.29,22.23-4.29
			c8.07,0,15.52,1.43,22.34,4.29s12.66,6.93,17.5,12.22c4.84,5.28,8.62,11.63,11.34,19.04
			C746.23,141.78,747.58,150.03,747.58,159.13z M720.29,159.13c0-11.45-2.46-20.5-7.37-27.18c-4.92-6.68-11.78-10.01-20.58-10.01
			c-8.8,0-15.67,3.34-20.58,10.01c-4.92,6.68-7.37,15.74-7.37,27.18c0,11.59,2.46,20.77,7.37,27.51
			c4.92,6.75,11.78,10.12,20.58,10.12c8.8,0,15.66-3.37,20.58-10.12C717.83,179.89,720.29,170.72,720.29,159.13z"/>
		<path class="st1" d="M872.38,213.27c-5.28,1.62-11.92,3.08-19.92,4.4c-8,1.32-16.4,1.98-25.2,1.98c-9.1,0-17.24-1.4-24.43-4.18
			c-7.19-2.79-13.32-6.79-18.38-12c-5.06-5.21-8.95-11.52-11.67-18.93c-2.72-7.41-4.07-15.74-4.07-24.98
			c0-9.1,1.14-17.35,3.41-24.76c2.27-7.41,5.61-13.76,10.01-19.04c4.4-5.28,9.76-9.35,16.07-12.22c6.31-2.86,13.57-4.29,21.79-4.29
			c5.58,0,10.49,0.66,14.75,1.98c4.25,1.32,7.92,2.79,11,4.4V50.4l26.63-4.4V213.27z M796.01,158.91c0,11.74,2.79,20.95,8.36,27.62
			c5.57,6.68,13.28,10.01,23.11,10.01c4.25,0,7.89-0.18,10.9-0.55c3-0.36,5.46-0.77,7.37-1.21v-66.03
			c-2.35-1.61-5.47-3.12-9.35-4.51c-3.89-1.39-8.03-2.09-12.44-2.09c-9.68,0-16.77,3.3-21.24,9.9
			C798.24,138.66,796.01,147.61,796.01,158.91z"/>
		<path class="st1" d="M899.89,159.79c0-10.12,1.5-19,4.51-26.63c3.01-7.63,7-13.98,12-19.04c4.99-5.06,10.71-8.88,17.17-11.45
			c6.46-2.57,13.06-3.85,19.81-3.85c15.85,0,28.21,4.92,37.09,14.75c8.88,9.83,13.32,24.51,13.32,44.02c0,1.47-0.04,3.12-0.11,4.95
			c-0.08,1.84-0.19,3.49-0.33,4.95H927.4c0.73,9.24,4,16.4,9.79,21.46c5.79,5.06,14.2,7.59,25.2,7.59c6.46,0,12.36-0.58,17.72-1.76
			c5.35-1.17,9.57-2.42,12.66-3.74l3.52,21.79c-1.47,0.74-3.49,1.51-6.05,2.31c-2.57,0.81-5.5,1.54-8.8,2.2s-6.86,1.21-10.67,1.65
			c-3.82,0.44-7.7,0.66-11.67,0.66c-10.13,0-18.93-1.51-26.41-4.51s-13.65-7.19-18.49-12.55c-4.84-5.35-8.44-11.67-10.78-18.93
			C901.06,176.41,899.89,168.45,899.89,159.79z M977.15,147.9c0-3.67-0.52-7.15-1.54-10.46c-1.03-3.3-2.53-6.16-4.51-8.58
			c-1.98-2.42-4.4-4.33-7.26-5.72c-2.86-1.39-6.27-2.09-10.24-2.09c-4.11,0-7.7,0.77-10.79,2.31c-3.08,1.54-5.69,3.56-7.81,6.05
			c-2.13,2.5-3.78,5.36-4.95,8.58c-1.18,3.23-1.98,6.53-2.42,9.9H977.15z"/>
		<path class="st1" d="M1070.25,98.82c8.8,0,16.21,1.1,22.23,3.3c6.02,2.2,10.82,5.28,14.42,9.24c3.59,3.96,6.16,8.77,7.7,14.42
			c1.54,5.65,2.31,11.85,2.31,18.6v69.77c-4.11,0.88-10.31,1.95-18.6,3.19c-8.29,1.25-17.65,1.87-28.06,1.87
			c-6.9,0-13.21-0.66-18.93-1.98c-5.72-1.32-10.6-3.45-14.64-6.38c-4.04-2.93-7.19-6.75-9.46-11.45
			c-2.28-4.69-3.41-10.49-3.41-17.39c0-6.6,1.28-12.18,3.85-16.73c2.57-4.55,6.05-8.25,10.45-11.12c4.4-2.86,9.5-4.91,15.3-6.16
			c5.79-1.25,11.85-1.87,18.16-1.87c2.93,0,6.01,0.19,9.24,0.55c3.23,0.37,6.67,0.99,10.34,1.87v-4.4c0-3.08-0.37-6.01-1.1-8.8
			c-0.74-2.79-2.02-5.24-3.85-7.37c-1.84-2.13-4.26-3.78-7.26-4.95c-3.01-1.17-6.79-1.76-11.33-1.76c-6.16,0-11.81,0.44-16.95,1.32
			c-5.14,0.88-9.32,1.91-12.55,3.08l-3.3-21.57c3.37-1.17,8.29-2.35,14.75-3.52C1056.02,99.41,1062.91,98.82,1070.25,98.82z
			 M1072.45,198.09c8.22,0,14.45-0.44,18.71-1.32v-29.49c-1.47-0.44-3.6-0.88-6.38-1.32c-2.79-0.44-5.87-0.66-9.24-0.66
			c-2.94,0-5.91,0.22-8.91,0.66c-3.01,0.44-5.72,1.25-8.14,2.42c-2.42,1.18-4.37,2.83-5.83,4.95c-1.47,2.13-2.2,4.81-2.2,8.03
			c0,6.31,1.98,10.68,5.94,13.1S1065.7,198.09,1072.45,198.09z"/>
		<path class="st1" d="M1189.54,219c-7.92-0.15-14.49-1.03-19.7-2.64c-5.21-1.61-9.35-3.92-12.44-6.93
			c-3.08-3.01-5.25-6.75-6.49-11.23c-1.25-4.47-1.87-9.57-1.87-15.3V50.4l26.63-4.4v131.84c0,3.23,0.25,5.94,0.77,8.14
			c0.51,2.2,1.43,4.07,2.75,5.61c1.32,1.54,3.12,2.72,5.39,3.52c2.27,0.81,5.17,1.43,8.69,1.87L1189.54,219z"/>
		<path class="st1" d="M1243.69,197.65c7.04,0,12.18-0.84,15.41-2.53c3.23-1.69,4.84-4.58,4.84-8.69c0-3.81-1.73-6.97-5.17-9.46
			c-3.45-2.49-9.13-5.21-17.06-8.14c-4.84-1.76-9.28-3.63-13.32-5.61c-4.04-1.98-7.52-4.29-10.46-6.93
			c-2.94-2.64-5.25-5.83-6.93-9.57c-1.69-3.74-2.53-8.33-2.53-13.76c0-10.56,3.89-18.89,11.67-24.98
			c7.78-6.09,18.34-9.13,31.69-9.13c6.75,0,13.21,0.63,19.37,1.87c6.16,1.25,10.79,2.46,13.87,3.63l-4.84,21.57
			c-2.94-1.32-6.68-2.53-11.23-3.63c-4.55-1.1-9.83-1.65-15.85-1.65c-5.43,0-9.83,0.92-13.21,2.75c-3.38,1.84-5.06,4.66-5.06,8.47
			c0,1.91,0.33,3.6,0.99,5.06c0.66,1.47,1.79,2.83,3.41,4.07c1.61,1.25,3.74,2.5,6.38,3.74c2.64,1.25,5.87,2.53,9.68,3.85
			c6.31,2.35,11.67,4.66,16.07,6.93c4.4,2.28,8.03,4.84,10.9,7.7s4.95,6.13,6.27,9.79c1.32,3.67,1.98,8.07,1.98,13.21
			c0,11.01-4.07,19.33-12.22,24.98s-19.77,8.47-34.89,8.47c-10.13,0-18.27-0.85-24.43-2.53s-10.49-3.04-12.99-4.07l4.62-22.23
			c3.96,1.62,8.69,3.16,14.2,4.62C1230.37,196.91,1236.65,197.65,1243.69,197.65z"/>
	</g>
	<g>
		<polygon class="st11" points="181.46,144.83 116.93,131.41 121.31,100.36 129.23,101.47 125.9,125.1 183.08,137 		"/>
	</g>
</g>
</svg>
