<svg id="Layer_1" data-name="Layer 1" xmlns="http://www.w3.org/2000/svg" viewBox="0 0 849.98 148.52"><defs><style>.cls-1{fill:#fff;}</style></defs><title>Artboard 7</title><polygon class="cls-1" points="266.96 146.55 266.96 49.23 328.48 49.23 328.48 64.26 284.66 64.26 284.66 89.11 323.56 89.11 323.56 104.14 284.66 104.14 284.66 146.55 266.96 146.55"/><path class="cls-1" d="M408.25,109.76a47.3,47.3,0,0,1-2.53,15.87,35.08,35.08,0,0,1-7.16,12.22,32.13,32.13,0,0,1-11.17,7.86A36.07,36.07,0,0,1,373,148.52a35.61,35.61,0,0,1-14.33-2.81,32.38,32.38,0,0,1-11.09-7.86,36,36,0,0,1-7.23-12.22,46.07,46.07,0,0,1-2.6-15.87,45.46,45.46,0,0,1,2.6-15.8,35.42,35.42,0,0,1,7.3-12.15A32.18,32.18,0,0,1,358.81,74,35.94,35.94,0,0,1,373,71.28,36.38,36.38,0,0,1,387.25,74a31.31,31.31,0,0,1,11.17,7.79A36.07,36.07,0,0,1,405.65,94,45.7,45.7,0,0,1,408.25,109.76Zm-17.42,0q0-11-4.7-17.35A15.4,15.4,0,0,0,373,86q-8.43,0-13.13,6.39t-4.71,17.35q0,11.1,4.71,17.55a16.57,16.57,0,0,0,26.26,0Q390.84,120.86,390.83,109.76Z"/><path class="cls-1" d="M492.23,109.76a47.3,47.3,0,0,1-2.53,15.87,35.08,35.08,0,0,1-7.16,12.22,32.18,32.18,0,0,1-11.16,7.86,36.16,36.16,0,0,1-14.4,2.81,35.56,35.56,0,0,1-14.32-2.81,32.32,32.32,0,0,1-11.1-7.86,36,36,0,0,1-7.23-12.22,46.07,46.07,0,0,1-2.6-15.87,45.46,45.46,0,0,1,2.6-15.8,35.42,35.42,0,0,1,7.3-12.15A32.22,32.22,0,0,1,442.8,74,35.85,35.85,0,0,1,457,71.28,36.38,36.38,0,0,1,471.23,74a31.31,31.31,0,0,1,11.17,7.79A36.07,36.07,0,0,1,489.63,94,45.7,45.7,0,0,1,492.23,109.76Zm-17.41,0q0-11-4.71-17.35A15.4,15.4,0,0,0,457,86q-8.43,0-13.13,6.39t-4.71,17.35q0,11.1,4.71,17.55a16.57,16.57,0,0,0,26.26,0Q474.82,120.86,474.82,109.76Z"/><path class="cls-1" d="M571.86,144.31a102,102,0,0,1-12.71,2.81,98.88,98.88,0,0,1-16.08,1.26,42.83,42.83,0,0,1-15.59-2.67,32.53,32.53,0,0,1-11.73-7.65A33.63,33.63,0,0,1,508.31,126a46.14,46.14,0,0,1-2.6-15.94,53.79,53.79,0,0,1,2.18-15.8,34.51,34.51,0,0,1,6.39-12.15,28.38,28.38,0,0,1,10.25-7.79,33.29,33.29,0,0,1,13.9-2.74,31.85,31.85,0,0,1,9.41,1.26,42.8,42.8,0,0,1,7,2.81V47.38l17-2.81Zm-48.73-34.69q0,11.23,5.33,17.62t14.75,6.39a57.41,57.41,0,0,0,6.95-.35,46.28,46.28,0,0,0,4.71-.77V90.38a26.41,26.41,0,0,0-6-2.88A23.34,23.34,0,0,0,541,86.17q-9.27,0-13.55,6.31T523.13,109.62Z"/><path class="cls-1" d="M589.41,110.18a46.13,46.13,0,0,1,2.88-17A35.6,35.6,0,0,1,600,81a31.51,31.51,0,0,1,10.95-7.3,33.89,33.89,0,0,1,12.64-2.46q15.16,0,23.66,9.41t8.5,28.09c0,.93,0,2-.07,3.16s-.12,2.22-.21,3.16H607q.71,8.84,6.25,13.69t16.08,4.84a52.78,52.78,0,0,0,11.3-1.12,46.07,46.07,0,0,0,8.08-2.39L650.93,144a26.7,26.7,0,0,1-3.87,1.47,55.8,55.8,0,0,1-5.61,1.41q-3.16.63-6.82,1.05a65,65,0,0,1-7.44.42,45,45,0,0,1-16.85-2.88,31.44,31.44,0,0,1-11.8-8,32.89,32.89,0,0,1-6.88-12.08A49.27,49.27,0,0,1,589.41,110.18Zm49.3-7.58a22.15,22.15,0,0,0-1-6.67,15.84,15.84,0,0,0-2.88-5.48,13.46,13.46,0,0,0-4.63-3.65,14.74,14.74,0,0,0-6.53-1.34,15.09,15.09,0,0,0-6.88,1.48,15.66,15.66,0,0,0-5,3.86,17.62,17.62,0,0,0-3.16,5.48,29.46,29.46,0,0,0-1.54,6.32Z"/><path class="cls-1" d="M698.11,71.28a41.72,41.72,0,0,1,14.19,2.1,22.83,22.83,0,0,1,9.2,5.9,22.14,22.14,0,0,1,4.91,9.2,44.76,44.76,0,0,1,1.48,11.87v44.52q-3.95.84-11.87,2a122.06,122.06,0,0,1-17.91,1.19A53.23,53.23,0,0,1,686,146.83a25.13,25.13,0,0,1-9.34-4.07,19.1,19.1,0,0,1-6-7.3,25.22,25.22,0,0,1-2.18-11.1,21.4,21.4,0,0,1,2.46-10.67,20.14,20.14,0,0,1,6.67-7.09,28.66,28.66,0,0,1,9.76-3.93,54.68,54.68,0,0,1,11.59-1.2,53.16,53.16,0,0,1,5.89.35,56.63,56.63,0,0,1,6.6,1.2v-2.81a21.91,21.91,0,0,0-.7-5.62,11.77,11.77,0,0,0-2.45-4.7,11.57,11.57,0,0,0-4.64-3.16,20,20,0,0,0-7.23-1.13,63.42,63.42,0,0,0-10.82.85,47.45,47.45,0,0,0-8,2L675.5,74.65a66.7,66.7,0,0,1,9.41-2.25A73.71,73.71,0,0,1,698.11,71.28Zm1.41,63.34a62.32,62.32,0,0,0,11.93-.85V115a30.73,30.73,0,0,0-4.07-.85,38.06,38.06,0,0,0-5.9-.42,39.19,39.19,0,0,0-5.68.42,17.65,17.65,0,0,0-5.2,1.55,9.33,9.33,0,0,0-3.72,3.16,8.78,8.78,0,0,0-1.41,5.12q0,6,3.8,8.36T699.52,134.62Z"/><path class="cls-1" d="M774.23,148a46.34,46.34,0,0,1-12.57-1.69,19.28,19.28,0,0,1-7.93-4.42,15.71,15.71,0,0,1-4.15-7.16,36.69,36.69,0,0,1-1.19-9.76V47.38l17-2.81V121.7a23.68,23.68,0,0,0,.49,5.19,8.31,8.31,0,0,0,1.76,3.58,7.78,7.78,0,0,0,3.44,2.25,26.52,26.52,0,0,0,5.55,1.19Z"/><path class="cls-1" d="M808.78,134.34q6.74,0,9.83-1.62a5.73,5.73,0,0,0,3.09-5.55,7.21,7.21,0,0,0-3.3-6q-3.3-2.38-10.89-5.19a89,89,0,0,1-8.49-3.58,28.88,28.88,0,0,1-6.67-4.43,18,18,0,0,1-4.43-6.11,21.37,21.37,0,0,1-1.61-8.77q0-10.11,7.44-15.94T814,71.28a62.57,62.57,0,0,1,12.35,1.19,60,60,0,0,1,8.85,2.32l-3.09,13.76a41.69,41.69,0,0,0-7.16-2.31,42.81,42.81,0,0,0-10.11-1.06,17.59,17.59,0,0,0-8.43,1.76,5.76,5.76,0,0,0-3.23,5.4,7.79,7.79,0,0,0,.63,3.23,6.89,6.89,0,0,0,2.18,2.6,21.88,21.88,0,0,0,4.07,2.39,64.54,64.54,0,0,0,6.18,2.46,93.67,93.67,0,0,1,10.25,4.42,27.74,27.74,0,0,1,7,4.92,16.81,16.81,0,0,1,4,6.25,25,25,0,0,1,1.26,8.42q0,10.54-7.79,15.94t-22.26,5.41a60.75,60.75,0,0,1-15.59-1.62,81.23,81.23,0,0,1-8.29-2.59l3-14.19a75.63,75.63,0,0,0,9.06,3A46.58,46.58,0,0,0,808.78,134.34Z"/><path class="cls-1" d="M214.53,125.74l0,20.54L165,146.19l.07-33.27-49.2-5.65a35,35,0,0,1-10.62-3L0,56l3.24-4.68a7.79,7.79,0,0,1,3.31-2.7,20.44,20.44,0,0,1,13.83-.81l29.26,8.62,32.78,8.93L93.77,68a10.65,10.65,0,0,0,8.34,11.92l41.22,8.65,1.3-6.19-9.14-1.92L108.44,74.2a9.91,9.91,0,0,1-7.59-11.06l.38-2.66a5,5,0,0,1,5.17-4.31l10.49.42a210,210,0,0,1,52.41,8.85A49.12,49.12,0,0,1,181,70.72a72.92,72.92,0,0,1,31.74,42.08A47.21,47.21,0,0,1,214.53,125.74Z"/><path class="cls-1" d="M168.55,4.53C152.2,1.64,130.5,0,107.47,0S62.75,1.53,46.38,4.37C26.41,7.85,17.51,12,17.5,19S26.39,30.7,46.34,34.22c16.35,2.89,38.05,4.5,61.08,4.53s44.73-1.52,61.09-4.37c20-3.47,28.88-8.15,28.88-15.17S188.51,8.06,168.55,4.53Zm-5.19,21.16c-15.38,2.38-35.24,3.67-55.92,3.65S66.89,28,51.51,25.55C35.85,23.08,29.9,20.35,27.78,19c2.12-1.35,8.08-5.72,23.75-8.15a373.16,373.16,0,0,1,55.93-4.2,451.53,451.53,0,0,1,55.92,3.79c17,2.18,21.61,7.41,23.73,8.76C185,20.55,179,23.27,163.36,25.69Z"/></svg>