<?xml version="1.0"?>
<svg xmlns="http://www.w3.org/2000/svg" height="512px" viewBox="-84 0 512 512" width="512px" class=""><g><path d="m60.195312 44.972656.378907-14.136718c.464843-15.796876-11.5625-30.371094-30.011719-30.835938-16.394531 0-29.546875 12.847656-29.957031 29.195312l-.398438 14.148438c-2.546875 93.136719 18.324219 215.3125 57.136719 285.9375l31.53125-92.300781c-14.984375-62.386719-30.480469-126.898438-28.679688-192.007813zm0 0" fill="#f78f8f" data-original="#F78F8F" class="active-path" style="fill:#30C6B7" data-old_color="#F78F8F"/><path d="m166.074219 3.179688c-14.457031-7.324219-33.046875-1.027344-40.269531 13.417968l-6.328126 12.65625c-34.0625 68.1875-51.472656 138.785156-55.894531 213.226563l59.34375-23.167969c11.179688-55.730469 24.574219-111.980469 50.222657-163.238281l6.328124-12.671875c7.515626-15.03125 1.179688-32.960938-13.402343-40.222656zm0 0" fill="#faaaaa" data-original="#FAAAAA" class="" style="fill:#30C6B7" data-old_color="#FAAAAA"/><path d="m282.242188 101.398438-11.101563 8.699218c-27 21.601563-51.898437 45.902344-73.5 72.601563-2.097656 2.097656-3.898437 4.5-5.699219 6.898437l-69-6.898437c13.800782-19.199219 28.800782-38.398438 45.300782-57 9.597656-10.800781 19.199218-21 29.398437-30.601563 11.699219-11.699218 24-22.5 36-32.101562l11.101563-8.695313c12.597656-9.902343 32.097656-7.800781 42.296874 4.796875 10.203126 12.902344 8.101563 31.800782-4.796874 42.300782zm0 0" fill="#fcced3" data-original="#FCCED3" class="" style="fill:#30C6B7" data-old_color="#FCCED3"/><path d="m282.242188 101.398438-11.101563 8.699218c-27 21.601563-51.898437 45.902344-73.5 72.601563v-87.601563c11.699219-11.699218 24-22.5 36-32.097656l11.101563-8.699219c12.597656-9.902343 32.097656-7.800781 42.296874 4.796875 10.203126 12.902344 8.101563 31.800782-4.796874 42.300782zm0 0" fill="#faaaaa" data-original="#FAAAAA" class="" style="fill:#30C6B7" data-old_color="#FAAAAA"/><path d="m343.441406 332.101562c-5.402344 43.199219-31.199218 80.097657-68.101562 100.496094-11.398438 13.800782-17.699219 31.300782-17.699219 48.101563v15.300781c0 8.398438-6.597656 16-15 16h-165c-7.199219 0-13.5-6.101562-14.699219-13.300781-15.601562-80.398438-15.300781-141.097657-15-184.601563v-14.097656c0-84 67.800782-150 149.699219-150 66.597656 0 108.898437 31.5 130.5 76.199219 4.800781 9.601562 4.199219 20.699219-1.5 30-12 19.199219-41.101563 18.898437-52.800781-4.199219l.300781 1.199219c-15.898437-25.800781-44.101563-43.199219-76.5-43.199219-49.800781 0-90 40.199219-90 90s40.199219 90 90 90c41.398437 0 75.898437-27.898438 86.398437-66 2.101563-13.800781 14.699219-24 29.398438-24 17.703125 0 32.402344 15 30.003906 32.101562zm0 0" fill="#fde4e4" data-original="#FDE4E4" class="" style="fill:#30C6B7" data-old_color="#FDE4E4"/><g fill="#fcced3"><path d="m197.640625 210v-60c66.597656 0 108.898437 31.5 130.5 76.199219 4.800781 9.601562 4.199219 20.699219-1.5 30-12 19.199219-41.101563 18.898437-52.800781-4.199219l.300781 1.199219c-15.898437-25.800781-44.097656-43.199219-76.5-43.199219zm0 0" data-original="#000000" class="" style="fill:#30C6B7" data-old_color="#000000"/><path d="m343.441406 332.101562c-5.402344 43.199219-31.199218 80.097657-68.101562 100.496094-11.398438 13.800782-17.699219 31.300782-17.699219 48.101563v15.300781c0 8.398438-6.597656 16-15 16h-45v-122c41.398437 0 75.902344-27.898438 86.398437-66 2.101563-13.800781 14.703126-24 29.402344-24 17.699219 0 32.398438 15 30 32.101562zm0 0" data-original="#000000" class="" style="fill:#30C6B7" data-old_color="#000000"/></g></g> </svg>
