<?xml version="1.0"?>
<svg xmlns="http://www.w3.org/2000/svg" height="512px" viewBox="-84 0 512 512" width="512px"><g><path d="m326.636719 257.070312c5.671875-9.054687 6.226562-20.273437 1.496093-29.984374-21.671874-44.628907-63.832031-76.085938-130.492187-76.085938-81.789063 0-149.765625 65.886719-149.765625 150l-.046875 14.121094c-.21875 43.578125-.527344 104.257812 15.074219 184.691406 1.347656 7.074219 7.542968 12.1875 14.734375 12.1875h165c8.292969 0 15-6.710938 15-15v-16.175781c.011719-16.886719 6.359375-33.285157 17.59375-47.128907 36.90625-20.546874 62.867187-57.460937 68.355469-100.511718 2.1875-17.21875-12.464844-32.183594-30.03125-32.183594-15.042969 0-27.714844 10.5625-29.472657 24.519531l-.078125-.566406c-10.539062 38-45.011718 66.046875-86.363281 66.046875-49.707031 0-90-40.292969-90-90s40.292969-90 90-90c32.449219 0 60.644531 17.335938 76.476563 43.089844l-.167969-1.226563c11.464843 23.296875 40.589843 23.507813 52.6875 4.207031zm0 0" data-original="#000000" class="active-path" data-old_color="#ffffff" fill="#ffffff"/><path d="m.601562 29.195312-.394531 12.277344c-1.738281 63.605469 7.53125 140.628906 25.894531 205.648438 2.460938-7.84375 5.609376-15.367188 9.078126-22.710938 3.996093-46.292968 12.808593-90.214844 26.671874-132.285156-1.453124-16.289062-2.113281-32.640625-1.660156-49.027344l.382813-12.261718c.464843-15.796876-11.566407-30.371094-30.015625-30.835938-16.390625 0-29.546875 12.847656-29.957032 29.195312zm0 0" data-original="#000000" class="active-path" data-old_color="#ffffff" fill="#ffffff"/><path d="m166.070312 3.179688c-14.457031-7.324219-33.046874-1.027344-40.269531 13.417968l-6.328125 12.65625c-22.996094 46.035156-38.171875 94.226563-47.117187 142.898438 13.449219-13.109375 29.074219-23.882813 46.058593-32.300782 8.730469-11.128906 17.792969-22.222656 27.367188-33.015624 3.632812-4.09375 7.429688-7.613282 11.109375-11.550782 4.78125-12.980468 10.039063-26.78125 16.253906-39.210937l6.328125-12.671875c7.515625-15.03125 1.179688-32.960938-13.402344-40.222656zm0 0" data-original="#000000" class="active-path" data-old_color="#ffffff" fill="#ffffff"/><path d="m251.953125 128.160156c6.378906-5.652344 12.386719-11.726562 19.058594-17.019531l11.089843-8.804687c12.972657-10.304688 15.128907-29.199219 4.832032-42.15625-9.988282-12.554688-29.632813-14.824219-42.15625-4.835938l-11.089844 8.804688c-21.066406 16.734374-41.855469 36.691406-61.949219 58.9375 8.484375-1.234376 17.082031-2.085938 25.898438-2.085938 19.394531 0 37.488281 2.542969 54.316406 7.160156zm0 0" data-original="#000000" class="active-path" data-old_color="#ffffff" fill="#ffffff"/></g> </svg>
