<svg height="480pt" fill="#39d1a0" viewBox="0 0 480.00001 480" width="480pt" xmlns="http://www.w3.org/2000/svg"><path d="m168 160c0-16.601562-6.480469-32.546875-18.054688-44.449219 17.695313-7.222656 37.996094-3.230469 51.640626 10.160157l11.199218-11.421876c-20.511718-20.148437-51.964844-24.078124-76.800781-9.601562-19.773437-11.492188-44.183594-11.539062-64-.121094-19.816406 11.421875-32.015625 32.5625-31.984375 55.433594v32h-32c-4.417969 0-8 3.582031-8 8v272c0 4.417969 3.582031 8 8 8h168v-16h-96v-256h24v32h16v-32h56v-16h-8zm-121.34375 259.558594c-1.570312-2.097656-4.035156-3.332032-6.65625-3.332032s-5.085938 1.234376-6.65625 3.332032l-17.34375 26.042968v-219.203124l17.34375 26.015624c1.484375 2.226563 3.980469 3.5625 6.65625 3.5625s5.171875-1.335937 6.65625-3.5625l17.34375-26.015624v219.203124zm10.398438 44.441406h-34.109376l17.054688-25.601562zm-17.054688-230.398438-17.054688-25.601562h34.109376zm16-41.601562v-32c-.019531-15.976562 7.921875-30.914062 21.179688-39.835938 13.253906-8.917968 30.082031-10.648437 44.875-4.613281-11.574219 11.902344-18.054688 27.847657-18.054688 44.449219v32zm64-32c.007812-13.625 5.828125-26.601562 16-35.671875 10.171875 9.070313 15.992188 22.046875 16 35.671875v32h-32zm0 0"/><path d="m255.199219 107.574219c.539062-1.113281.8125-2.335938.800781-3.574219v-56h32v56c-.011719 1.238281.261719 2.460938.800781 3.574219l48 96 14.320313-7.148438-47.121094-94.3125v-94.113281c0-4.417969-3.582031-8-8-8h-48c-4.417969 0-8 3.582031-8 8v94.113281l-47.160156 94.3125c-.554688 1.109375-.839844 2.332031-.839844 3.574219v272c0 4.417969 3.582031 8 8 8h56v-16h-48v-262.113281zm32.800781-91.574219v16h-32v-16zm0 0"/><path d="m478.871094 307.902344-30.871094-54.023438v-29.878906c0-4.417969-3.582031-8-8-8h-128c-4.417969 0-8 3.582031-8 8v29.878906l-30.945312 54.121094c-.699219 1.214844-1.0625 2.597656-1.054688 4v160c0 4.417969 3.582031 8 8 8h192c4.417969 0 8-3.582031 8-8v-160c.003906-1.441406-.386719-2.859375-1.128906-4.097656zm-20.65625-3.902344h-36.429688l18.214844-31.871094zm-138.214844-72h112v16h-112zm-3.359375 32h109.597656l-22.878906 40h-109.597656zm83.359375 200h-112v-144h112zm64 0h-48v-144h48zm0 0"/></svg>