<?xml version="1.0" encoding="utf-8"?>
<!-- Generator: Adobe Illustrator 16.0.4, SVG Export Plug-In . SVG Version: 6.00 Build 0)  -->
<!DOCTYPE svg PUBLIC "-//W3C//DTD SVG 1.1//EN" "http://www.w3.org/Graphics/SVG/1.1/DTD/svg11.dtd">
<svg version="1.1" id="Layer_2_2_" xmlns="http://www.w3.org/2000/svg" xmlns:xlink="http://www.w3.org/1999/xlink" x="0px" y="0px"
	 width="62px" height="62px" viewBox="0 0 62 62" enable-background="new 0 0 62 62" xml:space="preserve">
<circle fill="#FFFFFF" cx="31" cy="31" r="30.002"/>
<path fill="#006341" d="M34.017,13.969c-0.263-0.047-1.531-0.26-3.017-0.26s-2.754,0.212-3.017,0.26
	c-0.151,0.027-0.209-0.121-0.094-0.207c0.104-0.077,3.11-2.365,3.11-2.365s3.007,2.289,3.109,2.365
	C34.225,13.848,34.168,13.996,34.017,13.969z M28.823,28.825c0,0-0.159,0.057-0.201,0.197c0.63,0.484,1.064,1.585,2.378,1.585
	s1.748-1.101,2.377-1.585c-0.041-0.141-0.2-0.197-0.2-0.197S32.354,29.019,31,29.019C29.646,29.019,28.823,28.825,28.823,28.825z
	 M31,26.972c-0.365,0-0.445-0.138-0.694-0.137c-0.237,0.001-0.697,0.19-0.797,0.363c0.007,0.088,0.039,0.167,0.103,0.237
	c0.532,0.08,0.772,0.376,1.389,0.376s0.856-0.296,1.389-0.376c0.062-0.07,0.096-0.148,0.103-0.237
	c-0.099-0.173-0.56-0.361-0.798-0.363C31.445,26.833,31.364,26.972,31,26.972z M60.956,32.645c-0.038,0.717-0.102,1.428-0.19,2.131
	c-3.396,0.562-4.61-2.464-8.089-2.312c0.208,0.738,0.377,1.49,0.507,2.258c2.869-0.002,4.025,2.68,7.217,2.285
	c-0.168,0.82-0.37,1.629-0.603,2.426c-2.524,0.248-3.413-2.26-6.334-2.191c0.024,0.416,0.037,0.836,0.037,1.26
	c0,0.234-0.005,0.469-0.012,0.701c2.49-0.029,3.3,2.273,5.672,2.164c-0.297,0.807-0.629,1.596-0.991,2.369
	c-1.705-0.094-2.293-2.281-4.887-2.107c-0.078,0.561-0.177,1.115-0.295,1.662c2.253-0.158,2.738,1.916,4.352,2.084
	c-0.411,0.75-0.854,1.48-1.325,2.191c-0.956-0.512-1.785-2.057-3.598-2.152c0.186-0.574,0.349-1.156,0.487-1.748
	c-1.608,0-3.447-0.627-4.989-2.031c0.5-2.846-3.917-5.744-3.917-7.828c0-2.264,1.145-3.517,1.145-6.569
	c0-2.265-1.1-4.722-2.759-6.401c-0.321-0.326-0.65-0.59-1.028-0.827c1.524,1.886,2.694,4.122,2.694,6.712
	c0,2.874-1.337,4.391-1.337,7.044c0,2.652,3.88,4.947,3.88,7.682c0,1.076-0.344,2.127-1.478,4.191
	c1.742,1.74,4.011,2.689,5.475,2.689c0.475,0,0.73-0.145,0.9-0.518c0.146-0.322,0.285-0.648,0.416-0.977
	c1.577,0.061,2.299,1.494,3.172,2.066c-0.479,0.643-0.982,1.264-1.509,1.865c-0.585-0.648-1.371-1.738-2.522-2.041
	c-0.206,0.4-0.424,0.795-0.653,1.182c0.991,0.27,1.669,1.27,2.194,1.928c-0.566,0.586-1.155,1.148-1.768,1.688
	c-0.383-0.596-0.979-1.352-1.647-1.76c-0.247,0.334-0.504,0.66-0.769,0.977c0.568,0.385,1.069,1.078,1.396,1.643
	c-0.708,0.568-1.44,1.107-2.198,1.611c-0.374-3.047-4.533-5.135-3.412-8.67c-0.368,0.623-0.807,1.402-0.807,2.34
	c0,2.559,2.726,4.59,2.943,7.133c-0.565,0.338-1.143,0.656-1.732,0.957c-0.098-2.795-2.984-5.854-2.984-8.148
	c0-2.561,3.354-5.133,3.354-8.156c0-3.025-3.87-5.119-3.87-7.775c0-2.654,1.646-4.181,1.646-7.583c0-2.492-1.184-5.014-3.013-6.625
	c-0.324-0.286-0.643-0.513-1.026-0.712c1.725,2.069,2.725,3.946,2.725,6.794c0,3.199-1.886,4.975-1.886,8.107
	c0,3.133,3.798,4.875,3.798,7.795s-3.535,5.381-3.535,8.381c0,2.729,3.116,5.453,3.162,8.691c-0.681,0.297-1.375,0.568-2.081,0.814
	c0.396-3.271-3.111-6.645-3.111-9.314c0-2.918,3.667-5.426,3.667-8.572c0-3.148-3.728-4.611-3.728-7.842
	c0-3.229,2.287-5.017,2.287-8.585c0-2.781-1.373-5.282-3.379-6.832c-0.043-0.033-0.085-0.064-0.127-0.096
	c-0.189-0.14-0.345,0.029-0.211,0.195c1.42,1.773,2.179,3.566,2.179,6.221c0,3.264-2.627,5.916-2.627,9.078
	c0,3.732,3.528,4.799,3.528,7.861c0,3.061-3.783,5.51-3.783,8.76c0,3.014,3.58,6.359,2.966,9.838
	c-0.718,0.186-1.446,0.348-2.185,0.48c0.672-4.332-2.84-7.443-2.84-10.277c0-3.068,3.918-5.803,3.918-8.801
	c0-2.828-2.812-3.752-3.182-6.645c-0.051-0.395-0.368-0.688-0.805-0.615c-0.571,0.104-1.303,0.48-2.453,0.48
	s-1.882-0.377-2.454-0.48c-0.436-0.072-0.753,0.221-0.804,0.615c-0.369,2.893-3.183,3.816-3.183,6.645
	c0,2.998,3.919,5.732,3.919,8.801c0,2.834-3.512,5.945-2.841,10.277c-0.738-0.133-1.467-0.295-2.185-0.48
	c-0.614-3.479,2.967-6.824,2.967-9.838c0-3.25-3.784-5.699-3.784-8.76c0-3.062,3.529-4.129,3.529-7.861
	c0-3.162-2.628-5.813-2.628-9.078c0-2.654,0.759-4.447,2.18-6.221c0.133-0.166-0.022-0.335-0.212-0.195
	c-0.042,0.031-0.084,0.063-0.126,0.096C23.372,19.736,22,22.237,22,25.018c0,3.568,2.287,5.356,2.287,8.585
	c0,3.23-3.728,4.693-3.728,7.842c0,3.146,3.667,5.654,3.667,8.572c0,2.67-3.507,6.043-3.11,9.314
	c-0.707-0.246-1.401-0.518-2.082-0.814c0.047-3.238,3.161-5.963,3.161-8.691c0-3-3.533-5.461-3.533-8.381s3.796-4.662,3.796-7.795
	c0-3.132-1.885-4.908-1.885-8.107c0-2.848,0.999-4.725,2.724-6.794c-0.384,0.199-0.702,0.426-1.025,0.712
	c-1.829,1.611-3.012,4.133-3.012,6.625c0,3.402,1.646,4.929,1.646,7.583c0,2.656-3.87,4.75-3.87,7.775
	c0,3.023,3.354,5.596,3.354,8.156c0,2.295-2.888,5.354-2.985,8.148c-0.589-0.301-1.167-0.619-1.732-0.957
	c0.218-2.543,2.943-4.574,2.943-7.133c0-0.938-0.438-1.717-0.807-2.34c1.121,3.535-3.038,5.623-3.412,8.67
	c-0.758-0.504-1.491-1.043-2.198-1.611c0.326-0.564,0.827-1.258,1.396-1.643c-0.266-0.316-0.522-0.643-0.769-0.977
	c-0.669,0.408-1.266,1.164-1.648,1.76c-0.611-0.539-1.201-1.102-1.767-1.688c0.525-0.658,1.203-1.658,2.194-1.928
	c-0.229-0.387-0.447-0.781-0.653-1.182c-1.151,0.303-1.938,1.393-2.522,2.041c-0.527-0.602-1.031-1.223-1.509-1.865
	c0.873-0.572,1.595-2.006,3.171-2.066c0.132,0.328,0.271,0.654,0.417,0.977c0.17,0.373,0.426,0.518,0.9,0.518
	c1.464,0,3.732-0.949,5.475-2.689c-1.134-2.064-1.478-3.115-1.478-4.191c0-2.734,3.88-5.029,3.88-7.682
	c0-2.653-1.337-4.17-1.337-7.044c0-2.59,1.17-4.826,2.694-6.712c-0.378,0.237-0.707,0.501-1.028,0.827
	c-1.659,1.68-2.759,4.136-2.759,6.401c0,3.052,1.146,4.305,1.146,6.569c0,2.084-4.418,4.982-3.918,7.828
	c-1.542,1.404-3.381,2.031-4.99,2.031c0.14,0.592,0.303,1.174,0.487,1.748c-1.812,0.096-2.641,1.641-3.598,2.152
	c-0.472-0.711-0.914-1.441-1.325-2.191c1.613-0.168,2.099-2.242,4.353-2.084c-0.118-0.547-0.218-1.102-0.296-1.662
	c-2.594-0.174-3.182,2.014-4.887,2.107c-0.362-0.773-0.694-1.562-0.991-2.369c2.373,0.109,3.182-2.193,5.673-2.164
	c-0.007-0.232-0.012-0.467-0.012-0.701c0-0.424,0.013-0.844,0.036-1.26c-2.921-0.068-3.81,2.439-6.334,2.191
	c-0.232-0.797-0.435-1.605-0.602-2.426c3.19,0.395,4.347-2.287,7.217-2.285c0.13-0.768,0.299-1.52,0.506-2.258
	c-3.479-0.151-4.693,2.875-8.088,2.312c-0.089-0.703-0.152-1.414-0.19-2.131c3.947,0.441,5.427-2.804,9.021-2.407
	c0.339-0.859,0.733-1.69,1.177-2.49c-4.506-0.792-6.036,2.976-10.23,2.397C1.464,13.97,14.717,0.998,31,0.998
	S60.536,13.97,60.989,30.145c-4.195,0.579-5.725-3.188-10.23-2.397c0.443,0.8,0.837,1.631,1.177,2.49
	C55.528,29.84,57.008,33.086,60.956,32.645z M18.104,20.062c-2.209-0.903-4.883-0.695-7.167,0.772
	c-0.354-2.125-1.507-4.013-3.149-5.152c-0.227-0.157-0.463-0.008-0.442,0.255c0.347,4.49-2.278,8.389-5.506,11.816
	c3.327,1,6.159-3.284,10.474-1.789C13.862,23.659,15.828,21.656,18.104,20.062z M31,17.346c-2.785,0-5.118,1.575-5.729,3.61
	c-0.047,0.156,0.017,0.257,0.197,0.176c0.501-0.225,1.071-0.333,1.69-0.333c1.136,0,2.137,0.417,2.729,1.143
	c0.262,0.864,0.284,2.115-0.012,2.829c-0.468-0.105-0.636-0.467-1.093-0.467s-0.811,0.321-1.586,0.321
	c-0.774,0-0.865-0.366-1.374-0.366c-0.599,0-0.709,0.617-0.709,1.313c0,3.103,2.852,7.373,5.886,7.373
	c3.033,0,5.885-4.27,5.885-7.373c0-0.696-0.143-1.292-0.769-1.373c-0.312,0.225-0.599,0.426-1.313,0.426
	c-0.775,0-0.989-0.321-1.445-0.321c-0.551,0-0.496,1.162-1.15,1.227c-0.436-1.048-0.457-2.392-0.095-3.589
	c0.593-0.726,1.593-1.143,2.729-1.143c0.619,0,1.193,0.109,1.689,0.333c0.181,0.081,0.244-0.021,0.197-0.176
	C36.117,18.921,33.785,17.346,31,17.346z M35.434,21.798c-0.668,0-1.451,0.205-1.943,0.753c-0.051,0.149-0.051,0.371,0.021,0.519
	c1.211-0.415,2.279-0.431,2.795,0.146c0.275-0.25,0.363-0.475,0.363-0.736C36.67,22.077,36.26,21.798,35.434,21.798z M25.693,23.216
	c0.584-0.585,1.815-0.56,3.094-0.088c0.056-0.636-1.083-1.331-2.221-1.331c-0.827,0-1.236,0.279-1.236,0.683
	C25.33,22.741,25.418,22.967,25.693,23.216z M44.887,12.712c-2.199,0.157-4.109,0.912-5.654,2.17
	c0.656-1.86,1.489-3.487,2.545-5.064c-2.8,0.297-5.141,1.321-6.849,3.071l-1.337-3.505l2.968-2.621l-3.974-0.281L31,2.786
	l-1.587,3.696l-3.974,0.281l2.968,2.621l-1.336,3.505c-1.709-1.75-4.05-2.774-6.848-3.071c1.054,1.578,1.887,3.205,2.543,5.064
	c-1.544-1.259-3.454-2.014-5.653-2.17c1.319,1.696,2.488,3.504,3.354,5.448c0.098,0.219,0.308,0.291,0.535,0.178
	c3.012-1.497,6.406-2.339,9.997-2.339s6.984,0.843,9.998,2.339c0.227,0.113,0.437,0.041,0.534-0.178
	C42.398,16.216,43.567,14.408,44.887,12.712z M49.688,25.966c4.313-1.495,7.146,2.788,10.473,1.789
	c-3.228-3.427-5.852-7.326-5.505-11.816c0.021-0.263-0.216-0.413-0.442-0.255c-1.643,1.139-2.796,3.027-3.149,5.152
	c-2.285-1.467-4.958-1.676-7.167-0.772C46.171,21.656,48.138,23.659,49.688,25.966z"/>
<rect x="47.213" y="60.736" fill="none" width="3.604" height="0.264"/>
<g>
	<path fill="#006341" d="M53.595,57.01h-1.526v4.105h-0.547V57.01H50V56.5h3.595V57.01L53.595,57.01z"/>
	<path fill="#006341" d="M54.236,56.5h0.811l1.57,3.618h0.011l1.574-3.618H59v4.615h-0.551v-3.869h-0.012l-1.653,3.869h-0.333
		l-1.659-3.869h-0.011v3.869h-0.545V56.5z"/>
</g>
</svg>
